<svg width="40" height="40" viewBox="0 0 40 40" fill="none" xmlns="http://www.w3.org/2000/svg">
<circle cx="20" cy="20" r="19.5" stroke="black"/>
<circle cx="20" cy="13" r="4.5" stroke="black"/>
<mask id="path-3-inside-1_82_2" fill="white">
<path fill-rule="evenodd" clip-rule="evenodd" d="M14 20C11.2386 20 9 22.2386 9 25V32H31V25C31 22.2386 28.7614 20 26 20H14Z"/>
</mask>
<path d="M9 32H8V33H9V32ZM31 32V33H32V32H31ZM10 25C10 22.7909 11.7909 21 14 21V19C10.6863 19 8 21.6863 8 25H10ZM10 32V25H8V32H10ZM9 33H31V31H9V33ZM30 25V32H32V25H30ZM26 21C28.2091 21 30 22.7909 30 25H32C32 21.6863 29.3137 19 26 19V21ZM14 21H26V19H14V21Z" fill="black" mask="url(#path-3-inside-1_82_2)"/>
</svg>
